<svg xmlns="http://www.w3.org/2000/svg" viewBox="0 0 265.92 45.91"><defs><style>.cls-1{fill:#fff;}</style></defs><title>logoBA</title><g id="Layer_2" data-name="Layer 2"><g id="Layer_1-2" data-name="Layer 1"><path class="cls-1" d="M256.85,22.16h-5.29l2.72-8.26h.06l2.51,8.26m-14,8.5h5.71l1.66-4.5h7.92l1.57,4.5h6.17L257.79,9.55h-6.89Zm-13.47,0h7l7.19-21.11h-5.77l-4.72,16.57H233L228.33,9.55h-6Zm-15.73-8.5h-5.29l2.72-8.26h.06Zm-14,8.5h5.71l1.66-4.5H215l1.57,4.5h6.17L214.62,9.55h-6.89Zm-16.3,0h14.33V26.48H189V9.55h-5.62Zm-20.11-.54a22.14,22.14,0,0,0,6.29.91c4.69,0,9.28-1.48,9.28-7,0-7.62-10-5.32-10-8.74,0-1.84,2.36-2,3.78-2a11.34,11.34,0,0,1,4.69,1l.36-4.35a17.87,17.87,0,0,0-5.45-.79c-4.23,0-9.19,1.39-9.19,6.47,0,7.68,10,5.2,10,9.13,0,1.69-1.69,2.06-3.48,2.06a12.36,12.36,0,0,1-5.81-1.39Zm-10.61.54h5.62V9.55h-5.62Zm-14.67,0h5.63V13.72h5.2V9.55h-16v4.17H138ZM124,22.16h-5.29l2.72-8.26h.06Zm-14,8.5h5.71l1.66-4.5h7.92l1.57,4.5H133L124.9,9.55H118ZM95.81,13.54h1.48c2.15,0,4.11.36,4.11,2.33,0,2.39-2.3,2.45-4.11,2.45H95.81ZM90.18,30.66h5.63V22.31H97c2.09,0,2.81.91,4,4.54l1.21,3.81H108L106,24.91c-1.06-2.57-1.18-4.17-3-4.66v-.06c2.72-.63,4.05-2.51,4.05-5.32,0-3.63-3.06-5.32-6.8-5.32h-10ZM74.43,13.54h1.63c1.88,0,3.69.18,3.69,2.12,0,1.78-1.9,2.24-3.75,2.24H74.43Zm0,8.17h1.72c1.94,0,4.14.21,4.14,2.51,0,2.15-2.15,2.45-4.2,2.45H74.43ZM68.8,30.66h8.89c3.78,0,8.23-1.06,8.23-6.11,0-2.57-1.45-4.08-4.26-4.66v-.06C84,19,85.37,17.56,85.37,14.9c0-3.63-2.93-5.35-6.86-5.35H68.8Z"/><rect class="cls-1" y="38.28" width="7.63" height="7.63"/><rect class="cls-1" x="15.26" y="38.28" width="7.63" height="7.63"/><rect class="cls-1" x="30.38" y="38.28" width="7.63" height="7.63"/><rect class="cls-1" x="45.91" y="38.28" width="7.63" height="7.63"/><path class="cls-1" d="M22.89,23H15.26v7.7h7.63V23m30.65,7.7V0H45.91V7.83H38.15V0H30.52V7.83H7.63V0H0V30.65H7.63V15.46H30.52V30.65h7.63V15.46h7.76V30.65Z"/></g></g></svg>